<?xml version="1.0" encoding="iso-8859-1"?>
<!-- Uploaded to: SVG Repo, www.svgrepo.com, Generator: SVG Repo Mixer Tools -->
<svg fill="#000000" height="800px" width="800px" version="1.1" id="Layer_1" xmlns="http://www.w3.org/2000/svg" xmlns:xlink="http://www.w3.org/1999/xlink" 
	 viewBox="0 0 512 512" xml:space="preserve">
<g transform="translate(1 1)">
	<g>
		<g>
			<path d="M511,127V24.6C511,10.093,499.053-1,485.4-1H24.6C10.093-1-1,10.947-1,24.6V127c0,14.507,11.947,25.6,25.6,25.6v25.6
				C10.093,178.2-1,190.147-1,203.8v102.4c0,14.507,11.947,25.6,25.6,25.6v25.6C10.093,357.4-1,369.347-1,383v102.4
				c0,14.507,11.947,25.6,25.6,25.6h460.8c14.507,0,25.6-11.093,25.6-25.6V383c0-14.507-11.947-25.6-25.6-25.6v-25.6
				c14.507,0,25.6-11.093,25.6-25.6V203.8c0-14.507-11.947-25.6-25.6-25.6v-25.6C499.907,152.6,511,141.507,511,127z M493.933,383
				v102.4c0,5.12-4.267,8.533-8.533,8.533H24.6c-5.12,0-8.533-4.267-8.533-8.533V383c0-5.12,4.267-8.533,8.533-8.533h460.8
				C490.52,374.467,493.933,378.733,493.933,383z M468.333,357.4H41.667v-25.6h426.667V357.4z M493.933,203.8v102.4
				c0,5.12-4.267,8.533-8.533,8.533H24.6c-5.12,0-8.533-4.267-8.533-8.533V203.8c0-5.12,4.267-8.533,8.533-8.533h460.8
				C490.52,195.267,493.933,199.533,493.933,203.8z M468.333,178.2H41.667v-25.6h426.667V178.2z M24.6,135.533
				c-5.12,0-8.533-4.267-8.533-8.533V24.6c0-5.12,3.413-8.533,8.533-8.533h460.8c5.12,0,8.533,4.267,8.533,8.533V127
				c0,5.12-4.267,8.533-8.533,8.533H24.6z"/>
			<path d="M357.4,272.067c-5.12,0-8.533,3.413-8.533,8.533s3.413,8.533,8.533,8.533s8.533-3.413,8.533-8.533
				S362.52,272.067,357.4,272.067z"/>
			<path d="M391.533,272.067c-5.12,0-8.533,3.413-8.533,8.533s3.413,8.533,8.533,8.533c5.12,0,8.533-3.413,8.533-8.533
				S396.653,272.067,391.533,272.067z"/>
			<path d="M289.133,272.067c-5.12,0-8.533,3.413-8.533,8.533s3.413,8.533,8.533,8.533s8.533-3.413,8.533-8.533
				S294.253,272.067,289.133,272.067z"/>
			<path d="M323.267,272.067c-5.12,0-8.533,3.413-8.533,8.533s3.413,8.533,8.533,8.533s8.533-3.413,8.533-8.533
				S328.387,272.067,323.267,272.067z"/>
			<path d="M220.867,272.067c-5.12,0-8.533,3.413-8.533,8.533s3.413,8.533,8.533,8.533s8.533-3.413,8.533-8.533
				S225.987,272.067,220.867,272.067z"/>
			<path d="M255,272.067c-5.12,0-8.533,3.413-8.533,8.533s3.413,8.533,8.533,8.533s8.533-3.413,8.533-8.533
				S260.12,272.067,255,272.067z"/>
			<path d="M186.733,272.067c-5.12,0-8.533,3.413-8.533,8.533s3.413,8.533,8.533,8.533s8.533-3.413,8.533-8.533
				S191.853,272.067,186.733,272.067z"/>
			<path d="M425.667,272.067c-5.12,0-8.533,3.413-8.533,8.533s3.413,8.533,8.533,8.533s8.533-3.413,8.533-8.533
				S430.787,272.067,425.667,272.067z"/>
			<path d="M459.8,272.067c-5.12,0-8.533,3.413-8.533,8.533s3.413,8.533,8.533,8.533c5.12,0,8.533-3.413,8.533-8.533
				S464.92,272.067,459.8,272.067z"/>
			<path d="M374.467,246.467c-5.12,0-8.533,3.413-8.533,8.533s3.413,8.533,8.533,8.533S383,260.12,383,255
				S379.587,246.467,374.467,246.467z"/>
			<path d="M408.6,246.467c-5.12,0-8.533,3.413-8.533,8.533s3.413,8.533,8.533,8.533s8.533-3.413,8.533-8.533
				S413.72,246.467,408.6,246.467z"/>
			<path d="M306.2,246.467c-5.12,0-8.533,3.413-8.533,8.533s3.413,8.533,8.533,8.533s8.533-3.413,8.533-8.533
				S311.32,246.467,306.2,246.467z"/>
			<path d="M340.333,246.467c-5.12,0-8.533,3.413-8.533,8.533s3.413,8.533,8.533,8.533c5.12,0,8.533-3.413,8.533-8.533
				S345.453,246.467,340.333,246.467z"/>
			<path d="M237.933,246.467c-5.12,0-8.533,3.413-8.533,8.533s3.413,8.533,8.533,8.533s8.533-3.413,8.533-8.533
				S243.053,246.467,237.933,246.467z"/>
			<path d="M272.067,246.467c-5.12,0-8.533,3.413-8.533,8.533s3.413,8.533,8.533,8.533c5.12,0,8.533-3.413,8.533-8.533
				S277.187,246.467,272.067,246.467z"/>
			<path d="M203.8,246.467c-5.12,0-8.533,3.413-8.533,8.533s3.413,8.533,8.533,8.533c5.12,0,8.533-3.413,8.533-8.533
				S208.92,246.467,203.8,246.467z"/>
			<path d="M442.733,246.467c-5.12,0-8.533,3.413-8.533,8.533s3.413,8.533,8.533,8.533s8.533-3.413,8.533-8.533
				S447.853,246.467,442.733,246.467z"/>
			<path d="M178.2,237.933h290.133c5.12,0,8.533-3.413,8.533-8.533s-3.413-8.533-8.533-8.533H178.2c-5.12,0-8.533,3.413-8.533,8.533
				S173.08,237.933,178.2,237.933z"/>
			<path d="M41.667,289.133h102.4c5.12,0,8.533-3.413,8.533-8.533v-51.2c0-5.12-3.413-8.533-8.533-8.533h-102.4
				c-5.12,0-8.533,3.413-8.533,8.533v51.2C33.133,285.72,36.547,289.133,41.667,289.133z M50.2,237.933h85.333v34.133H50.2V237.933z
				"/>
		</g>
	</g>
</g>
</svg>