<?xml version="1.0" encoding="iso-8859-1"?>
<!-- Uploaded to: SVG Repo, www.svgrepo.com, Generator: SVG Repo Mixer Tools -->
<svg fill="#000000" version="1.1" id="Layer_1" xmlns="http://www.w3.org/2000/svg" xmlns:xlink="http://www.w3.org/1999/xlink" 
	 viewBox="0 0 503.607 503.607" xml:space="preserve">
<g>
	<g>
		<path d="M503.607,125.902V25.18c0-13.43-10.911-25.18-25.18-25.18H25.18C10.911,0,0,10.911,0,25.18v100.721
			c0,13.429,10.911,25.18,25.18,25.18v25.18c-13.43,0-25.18,10.911-25.18,25.18v100.721c0,13.43,10.911,25.18,25.18,25.18v25.18
			c-13.43,0-25.18,10.911-25.18,25.18v100.721c0,13.43,10.911,25.18,25.18,25.18h453.246c13.43,0,25.18-10.911,25.18-25.18V377.705
			c0-13.429-10.911-25.18-25.18-25.18v-25.18c13.43,0,25.18-10.911,25.18-25.18V201.443c0-13.43-10.911-25.18-25.18-25.18v-25.18
			C491.856,151.082,503.607,140.171,503.607,125.902z M41.967,151.082h419.672v25.18H41.967V151.082z M33.574,276.984v-50.361
			c0-5.036,3.357-8.393,8.393-8.393h100.721c5.036,0,8.393,3.357,8.393,8.393v50.361c0,5.036-3.357,8.393-8.393,8.393H41.967
			C36.931,285.377,33.574,281.18,33.574,276.984z M461.639,352.525H41.967v-25.18h419.672V352.525z M176.262,276.984
			c0-5.036,3.357-8.393,8.393-8.393s8.393,3.357,8.393,8.393c0,5.036-3.357,8.393-8.393,8.393S176.262,281.18,176.262,276.984z
			 M201.443,260.197c-5.036,0-8.393-3.357-8.393-8.393s3.357-8.393,8.393-8.393s8.393,3.357,8.393,8.393
			S206.479,260.197,201.443,260.197z M218.229,268.59c5.036,0,8.393,3.357,8.393,8.393c0,5.036-3.357,8.393-8.393,8.393
			s-8.393-3.357-8.393-8.393C209.836,271.948,213.193,268.59,218.229,268.59z M235.016,260.197c-5.036,0-8.393-3.357-8.393-8.393
			s3.357-8.393,8.393-8.393s8.393,3.357,8.393,8.393S240.052,260.197,235.016,260.197z M251.803,268.59
			c5.036,0,8.393,3.357,8.393,8.393c0,5.036-3.357,8.393-8.393,8.393c-5.036,0-8.393-3.357-8.393-8.393
			C243.41,271.948,246.767,268.59,251.803,268.59z M268.59,260.197c-5.036,0-8.393-3.357-8.393-8.393s3.357-8.393,8.393-8.393
			s8.393,3.357,8.393,8.393S273.626,260.197,268.59,260.197z M285.377,268.59c5.036,0,8.393,3.357,8.393,8.393
			c0,5.036-3.357,8.393-8.393,8.393c-5.036,0-8.393-3.357-8.393-8.393C276.984,271.948,280.341,268.59,285.377,268.59z
			 M302.164,260.197c-5.036,0-8.393-3.357-8.393-8.393s3.357-8.393,8.393-8.393s8.393,3.357,8.393,8.393
			S307.2,260.197,302.164,260.197z M318.951,268.59c5.036,0,8.393,3.357,8.393,8.393c0,5.036-3.357,8.393-8.393,8.393
			c-5.036,0-8.393-3.357-8.393-8.393C310.557,271.948,313.915,268.59,318.951,268.59z M335.738,260.197
			c-5.036,0-8.393-3.357-8.393-8.393s3.357-8.393,8.393-8.393c5.036,0,8.393,3.357,8.393,8.393S340.774,260.197,335.738,260.197z
			 M352.525,268.59c5.036,0,8.393,3.357,8.393,8.393c0,5.036-3.357,8.393-8.393,8.393c-5.036,0-8.393-3.357-8.393-8.393
			C344.131,271.948,347.489,268.59,352.525,268.59z M369.311,260.197c-5.036,0-8.393-3.357-8.393-8.393s3.357-8.393,8.393-8.393
			s8.393,3.357,8.393,8.393S374.348,260.197,369.311,260.197z M386.098,268.59c5.036,0,8.393,3.357,8.393,8.393
			c0,5.036-3.357,8.393-8.393,8.393c-5.036,0-8.393-3.357-8.393-8.393C377.705,271.948,381.062,268.59,386.098,268.59z
			 M402.885,260.197c-5.036,0-8.393-3.357-8.393-8.393s3.357-8.393,8.393-8.393c5.036,0,8.393,3.357,8.393,8.393
			S407.921,260.197,402.885,260.197z M419.672,268.59c5.036,0,8.393,3.357,8.393,8.393c0,5.036-3.357,8.393-8.393,8.393
			s-8.393-3.357-8.393-8.393C411.279,271.948,414.636,268.59,419.672,268.59z M428.066,251.803c0-5.036,3.357-8.393,8.393-8.393
			c5.036,0,8.393,3.357,8.393,8.393s-3.357,8.393-8.393,8.393C431.423,260.197,428.066,256,428.066,251.803z M453.246,285.377
			c-5.036,0-8.393-3.357-8.393-8.393c0-5.036,3.357-8.393,8.393-8.393c5.036,0,8.393,3.357,8.393,8.393
			C461.639,282.02,458.282,285.377,453.246,285.377z M461.639,235.016H176.262c-5.036,0-8.393-3.357-8.393-8.393
			s3.357-8.393,8.393-8.393h285.377c5.036,0,8.393,3.357,8.393,8.393S466.675,235.016,461.639,235.016z"/>
	</g>
</g>
<g>
	<g>
		<rect x="50.361" y="235.016" width="83.934" height="33.574"/>
	</g>
</g>
</svg>