<?xml version="1.0" encoding="iso-8859-1"?>
<!-- Uploaded to: SVG Repo, www.svgrepo.com, Generator: SVG Repo Mixer Tools -->
<svg height="800px" width="800px" version="1.1" id="Layer_1" xmlns="http://www.w3.org/2000/svg" xmlns:xlink="http://www.w3.org/1999/xlink" 
	 viewBox="0 0 512 512" xml:space="preserve">
<g transform="translate(1 1)">
	<path style="fill:#FCC309;" d="M58.733,186.733h392.533v-42.667H58.733V186.733z"/>
	<path style="fill:#FFFFFF;" d="M33.133,186.733h25.6v-42.667h-25.6V186.733z"/>
	<path style="fill:#FD9808;" d="M451.267,186.733h25.6v-42.667h-25.6V186.733z"/>
	<path style="fill:#FCC309;" d="M58.733,365.933h392.533v-42.667H58.733V365.933z"/>
	<path style="fill:#FFFFFF;" d="M33.133,365.933h25.6v-42.667h-25.6V365.933z"/>
	<path style="fill:#FD9808;" d="M451.267,365.933h25.6v-42.667h-25.6V365.933z"/>
	<path style="fill:#FFDD09;" d="M459.8,323.267H50.2c-9.387,0-17.067-7.68-17.067-17.067V203.8c0-9.387,7.68-17.067,17.067-17.067
		h409.6c9.387,0,17.067,7.68,17.067,17.067v102.4C476.867,315.587,469.187,323.267,459.8,323.267"/>
	<path style="fill:#1CD759;" d="M41.667,280.6h102.4v-51.2h-102.4V280.6z"/>
	<path style="fill:#FFDD09;" d="M459.8,144.067H50.2c-9.387,0-17.067-7.68-17.067-17.067V24.6c0-9.387,7.68-17.067,17.067-17.067
		h409.6c9.387,0,17.067,7.68,17.067,17.067V127C476.867,136.387,469.187,144.067,459.8,144.067"/>
	<path style="fill:#FFFFFF;" d="M33.133,127V24.6c0-9.387,7.68-17.067,17.067-17.067H24.6c-9.387,0-17.067,7.68-17.067,17.067V127
		c0,9.387,7.68,17.067,17.067,17.067h25.6C40.813,144.067,33.133,136.387,33.133,127"/>
	<path style="fill:#FD9808;" d="M485.4,7.533h-25.6c9.387,0,17.067,7.68,17.067,17.067V127c0,9.387-7.68,17.067-17.067,17.067h25.6
		c9.387,0,17.067-7.68,17.067-17.067V24.6C502.467,15.213,494.787,7.533,485.4,7.533"/>
	<path style="fill:#FFFFFF;" d="M33.133,306.2V203.8c0-9.387,7.68-17.067,17.067-17.067H24.6c-9.387,0-17.067,7.68-17.067,17.067
		v102.4c0,9.387,7.68,17.067,17.067,17.067h25.6C40.813,323.267,33.133,315.587,33.133,306.2"/>
	<path style="fill:#FD9808;" d="M485.4,186.733h-25.6c9.387,0,17.067,7.68,17.067,17.067v102.4c0,9.387-7.68,17.067-17.067,17.067
		h25.6c9.387,0,17.067-7.68,17.067-17.067V203.8C502.467,194.413,494.787,186.733,485.4,186.733"/>
	<path style="fill:#FFDD09;" d="M459.8,502.467H50.2c-9.387,0-17.067-7.68-17.067-17.067V383c0-9.387,7.68-17.067,17.067-17.067
		h409.6c9.387,0,17.067,7.68,17.067,17.067v102.4C476.867,494.787,469.187,502.467,459.8,502.467"/>
	<path style="fill:#FFFFFF;" d="M33.133,485.4V383c0-9.387,7.68-17.067,17.067-17.067H24.6c-9.387,0-17.067,7.68-17.067,17.067
		v102.4c0,9.387,7.68,17.067,17.067,17.067h25.6C40.813,502.467,33.133,494.787,33.133,485.4"/>
	<path style="fill:#FD9808;" d="M485.4,365.933h-25.6c9.387,0,17.067,7.68,17.067,17.067v102.4c0,9.387-7.68,17.067-17.067,17.067
		h25.6c9.387,0,17.067-7.68,17.067-17.067V383C502.467,373.613,494.787,365.933,485.4,365.933"/>
	<path d="M485.4,152.6H24.6C10.947,152.6-1,141.507-1,127V24.6C-1,10.947,10.093-1,24.6-1h460.8C499.053-1,511,10.093,511,24.6V127
		C511,141.507,499.907,152.6,485.4,152.6z M24.6,16.067c-5.12,0-8.533,3.413-8.533,8.533V127c0,4.267,3.413,8.533,8.533,8.533h460.8
		c4.267,0,8.533-3.413,8.533-8.533V24.6c0-4.267-3.413-8.533-8.533-8.533H24.6z"/>
	<path d="M485.4,511H24.6C10.947,511-1,499.907-1,485.4V383c0-13.653,11.093-25.6,25.6-25.6h460.8c13.653,0,25.6,11.093,25.6,25.6
		v102.4C511,499.907,499.907,511,485.4,511z M24.6,374.467c-4.267,0-8.533,3.413-8.533,8.533v102.4c0,4.267,3.413,8.533,8.533,8.533
		h460.8c4.267,0,8.533-3.413,8.533-8.533V383c0-4.267-3.413-8.533-8.533-8.533H24.6z"/>
	<path d="M485.4,331.8H24.6C10.947,331.8-1,320.707-1,306.2V203.8c0-13.653,11.093-25.6,25.6-25.6h460.8
		c13.653,0,25.6,11.093,25.6,25.6v102.4C511,320.707,499.907,331.8,485.4,331.8z M24.6,195.267c-4.267,0-8.533,3.413-8.533,8.533
		v102.4c0,4.267,3.413,8.533,8.533,8.533h460.8c4.267,0,8.533-3.413,8.533-8.533V203.8c0-4.267-3.413-8.533-8.533-8.533H24.6z"/>
	<path d="M365.933,280.6c0,5.12-3.413,8.533-8.533,8.533s-8.533-3.413-8.533-8.533s3.413-8.533,8.533-8.533
		S365.933,275.48,365.933,280.6"/>
	<path d="M400.067,280.6c0,5.12-3.413,8.533-8.533,8.533S383,285.72,383,280.6s3.413-8.533,8.533-8.533
		S400.067,275.48,400.067,280.6"/>
	<path d="M297.667,280.6c0,5.12-3.413,8.533-8.533,8.533c-5.12,0-8.533-3.413-8.533-8.533s3.413-8.533,8.533-8.533
		C294.253,272.067,297.667,275.48,297.667,280.6"/>
	<path d="M331.8,280.6c0,5.12-3.413,8.533-8.533,8.533c-5.12,0-8.533-3.413-8.533-8.533s3.413-8.533,8.533-8.533
		C328.387,272.067,331.8,275.48,331.8,280.6"/>
	<path d="M229.4,280.6c0,5.12-3.413,8.533-8.533,8.533c-5.12,0-8.533-3.413-8.533-8.533s3.413-8.533,8.533-8.533
		C225.987,272.067,229.4,275.48,229.4,280.6"/>
	<path d="M263.533,280.6c0,5.12-3.413,8.533-8.533,8.533s-8.533-3.413-8.533-8.533s3.413-8.533,8.533-8.533
		S263.533,275.48,263.533,280.6"/>
	<path d="M195.267,280.6c0,5.12-3.413,8.533-8.533,8.533c-5.12,0-8.533-3.413-8.533-8.533s3.413-8.533,8.533-8.533
		C191.853,272.067,195.267,275.48,195.267,280.6"/>
	<path d="M434.2,280.6c0,5.12-3.413,8.533-8.533,8.533s-8.533-3.413-8.533-8.533s3.413-8.533,8.533-8.533S434.2,275.48,434.2,280.6"
		/>
	<path d="M468.333,280.6c0,5.12-3.413,8.533-8.533,8.533s-8.533-3.413-8.533-8.533s3.413-8.533,8.533-8.533
		S468.333,275.48,468.333,280.6"/>
	<path d="M383,255c0,5.12-3.413,8.533-8.533,8.533c-5.12,0-8.533-3.413-8.533-8.533s3.413-8.533,8.533-8.533
		C379.587,246.467,383,249.88,383,255"/>
	<path d="M417.133,255c0,5.12-3.413,8.533-8.533,8.533c-5.12,0-8.533-3.413-8.533-8.533s3.413-8.533,8.533-8.533
		C413.72,246.467,417.133,249.88,417.133,255"/>
	<path d="M314.733,255c0,5.12-3.413,8.533-8.533,8.533s-8.533-3.413-8.533-8.533s3.413-8.533,8.533-8.533
		S314.733,249.88,314.733,255"/>
	<path d="M348.867,255c0,5.12-3.413,8.533-8.533,8.533c-5.12,0-8.533-3.413-8.533-8.533s3.413-8.533,8.533-8.533
		C345.453,246.467,348.867,249.88,348.867,255"/>
	<path d="M246.467,255c0,5.12-3.413,8.533-8.533,8.533c-5.12,0-8.533-3.413-8.533-8.533s3.413-8.533,8.533-8.533
		C243.053,246.467,246.467,249.88,246.467,255"/>
	<path d="M280.6,255c0,5.12-3.413,8.533-8.533,8.533s-8.533-3.413-8.533-8.533s3.413-8.533,8.533-8.533S280.6,249.88,280.6,255"/>
	<path d="M212.333,255c0,5.12-3.413,8.533-8.533,8.533c-5.12,0-8.533-3.413-8.533-8.533s3.413-8.533,8.533-8.533
		C208.92,246.467,212.333,249.88,212.333,255"/>
	<path d="M451.267,255c0,5.12-3.413,8.533-8.533,8.533c-5.12,0-8.533-3.413-8.533-8.533s3.413-8.533,8.533-8.533
		C447.853,246.467,451.267,249.88,451.267,255"/>
	<path d="M468.333,237.933H178.2c-5.12,0-8.533-3.413-8.533-8.533c0-5.12,3.413-8.533,8.533-8.533h290.133
		c5.12,0,8.533,3.413,8.533,8.533C476.867,234.52,473.453,237.933,468.333,237.933z"/>
	<path d="M144.067,289.133h-102.4c-5.12,0-8.533-3.413-8.533-8.533v-51.2c0-5.12,3.413-8.533,8.533-8.533h102.4
		c5.12,0,8.533,3.413,8.533,8.533v51.2C152.6,285.72,149.187,289.133,144.067,289.133z M50.2,272.067h85.333v-34.133H50.2V272.067z"
		/>
	<path d="M485.4,195.267H24.6v-59.733h460.8V195.267z M41.667,178.2h426.667v-25.6H41.667V178.2z"/>
	<path d="M485.4,374.467H24.6v-59.733h460.8V374.467z M41.667,357.4h426.667v-25.6H41.667V357.4z"/>
</g>
</svg>